<svg xmlns="http://www.w3.org/2000/svg" xmlns:xlink="http://www.w3.org/1999/xlink" viewBox="0 0 459.02 133.84"><defs><style>.cls-1{mix-blend-mode:multiply;fill:url(#radial-gradient);}.cls-2{mask:url(#mask);}.cls-3{fill:url(#radial-gradient-2);}.cls-13,.cls-4{fill:#fff;}.cls-5{fill:url(#linear-gradient);}.cls-6{fill:url(#linear-gradient-2);}.cls-7{fill:url(#linear-gradient-3);}.cls-8{fill:url(#linear-gradient-4);}.cls-9{fill:url(#linear-gradient-5);}.cls-10{fill:url(#linear-gradient-6);}.cls-11{fill:url(#linear-gradient-7);}.cls-12{stroke-miterlimit:10;fill:url(#radial-gradient-3);stroke:url(#radial-gradient-4);}.cls-13{opacity:0.41;}</style><radialGradient id="radial-gradient" cx="116.02" cy="72.13" fx="41.82284523569898" fy="126.2682487469977" r="91.85" gradientTransform="translate(-1.83 9.94) scale(1.02 1.02)" gradientUnits="userSpaceOnUse"><stop offset="0.73" stop-color="#fff"/><stop offset="0.89" stop-color="#231f20"/></radialGradient><mask id="mask" x="40.79" y="24.18" width="110.94" height="110.79" maskUnits="userSpaceOnUse"><ellipse class="cls-1" cx="96.26" cy="79.58" rx="55.47" ry="55.4"/></mask><radialGradient id="radial-gradient-2" cx="75.88" cy="69.65" fx="82.89137207693703" r="113.96" gradientTransform="translate(-0.2)" gradientUnits="userSpaceOnUse"><stop offset="0.31" stop-color="#c33"/><stop offset="0.6" stop-color="#f58136"/></radialGradient><linearGradient id="linear-gradient" x1="48.07" y1="51.19" x2="78.33" y2="51.19" gradientUnits="userSpaceOnUse"><stop offset="0" stop-opacity="0.6"/><stop offset="0.44" stop-color="#231f20"/></linearGradient><linearGradient id="linear-gradient-2" x1="46.85" y1="105.19" x2="72.1" y2="105.19" xlink:href="#linear-gradient"/><linearGradient id="linear-gradient-3" x1="42.45" y1="87.19" x2="94.68" y2="87.19" xlink:href="#linear-gradient"/><linearGradient id="linear-gradient-4" x1="57.87" y1="121.32" x2="94.68" y2="121.32" xlink:href="#linear-gradient"/><linearGradient id="linear-gradient-5" x1="99.74" y1="87.19" x2="122.87" y2="87.19" xlink:href="#linear-gradient"/><linearGradient id="linear-gradient-6" x1="86.45" y1="51.19" x2="113.92" y2="51.19" xlink:href="#linear-gradient"/><linearGradient id="linear-gradient-7" x1="58.85" y1="36.32" x2="104.19" y2="36.32" xlink:href="#linear-gradient"/><radialGradient id="radial-gradient-3" cx="153.89" cy="-1214.66" fx="166.89898377063525" r="14.84" gradientTransform="translate(344.79 -1134.47) rotate(180)" gradientUnits="userSpaceOnUse"><stop offset="0.47" stop-color="#00022a"/><stop offset="0.52" stop-color="#001741"/><stop offset="0.63" stop-color="#004c7d"/><stop offset="0.79" stop-color="#00a2db"/><stop offset="0.8" stop-color="#00a5df"/><stop offset="0.85" stop-color="#7cb3e1"/></radialGradient><radialGradient id="radial-gradient-4" cx="151.46" cy="-1215.52" r="8.87" gradientTransform="translate(344.79 -1134.47) rotate(180)" gradientUnits="userSpaceOnUse"><stop offset="0" stop-color="#005e9b"/><stop offset="0" stop-color="#015f9c" stop-opacity="0"/></radialGradient></defs><title>logo_dark</title><g id="Layer_2" data-name="Layer 2"><g id="Layer_1-2" data-name="Layer 1"><g id="_Group_" data-name="&lt;Group&gt;"><path d="M151.19,79.4a54.41,54.41,0,0,1-93.32,38.09,53.86,53.86,0,0,1-6.68-8.3c-.41-.61-.79-1.23-1.17-1.86a54.91,54.91,0,0,1-3.09-6,1.56,1.56,0,0,1-.08-.19,53.39,53.39,0,0,1-3.25-10c-.1-.45-.19-.9-.28-1.35a51.1,51.1,0,0,1-.8-5.7c0-.32,0-.63-.07-1-.1-1.25-.14-2.51-.14-3.79A54.18,54.18,0,0,1,48.07,55l.33-.65a52.64,52.64,0,0,1,3-5.09c.47-.71,1-1.41,1.46-2.1a54.34,54.34,0,0,1,6-6.85,54.91,54.91,0,0,1,6.21-5.19,51.41,51.41,0,0,1,4.6-3A54.44,54.44,0,0,1,151.19,79.4Z"/><g class="cls-2"><ellipse class="cls-3" cx="96.82" cy="79.4" rx="54.51" ry="54.44"/></g><g id="_Group_2" data-name="&lt;Group&gt;"><path id="_Compound_Path_" data-name="&lt;Compound Path&gt;" class="cls-4" d="M262.13,45.87V106.1a9.43,9.43,0,0,1-2.4,6.49,9.29,9.29,0,0,1-5.89,3.3l-.2.1H238.85l-.2-.1a9.28,9.28,0,0,1-5.89-3.3,9.44,9.44,0,0,1-2.4-6.49V45.87h11V105h9.79V45.87Z"/><path id="_Compound_Path_2" data-name="&lt;Compound Path&gt;" class="cls-4" d="M301.68,46.07V116h-11l-10-31.27V116h-11V46.07h11v.2l10,33V46.07h11Z"/><path id="_Compound_Path_3" data-name="&lt;Compound Path&gt;" class="cls-4" d="M340.06,73.44a8.15,8.15,0,0,1-4.2,2.5,8.73,8.73,0,0,1,4,2.6c.07.33.12.65.15.95a8.74,8.74,0,0,1,0,.95V108.1a7.54,7.54,0,0,1-2.35,5.59,7.78,7.78,0,0,1-5.64,2.3H310.19V46.07h21.88a8,8,0,0,1,8,8Zm-11-16.38h-7.89V70h7.89Zm0,24h-7.89v24h7.89Z"/><path id="_Compound_Path_4" data-name="&lt;Compound Path&gt;" class="cls-4" d="M358.24,116H347.16l11.19-70h13.59l11.29,70H372l-2.3-14.68h-9.09Zm6.89-48.35-2.8,22.68h5.59Z"/><path id="_Compound_Path_5" data-name="&lt;Compound Path&gt;" class="cls-4" d="M418.29,49.36a9.92,9.92,0,0,1,2.4,6.49v9.49h-11V57.05H401.2V70h9.44a9.74,9.74,0,0,1,7.13,2.89A9.59,9.59,0,0,1,420.68,80v26.12a9.83,9.83,0,0,1-8.39,9.77l-.2.1H398.81l-.2-.1a9.84,9.84,0,0,1-8.39-9.79V96.61h11V105h8.49V81h-9.49a9.89,9.89,0,0,1-10-10V55.86a9.84,9.84,0,0,1,8.39-9.79h13.69A10,10,0,0,1,418.29,49.36Z"/><path id="_Compound_Path_6" data-name="&lt;Compound Path&gt;" class="cls-4" d="M459,46.07v11H441.43V70.14h14v11h-14V105H459v11H430.45V46.07H459Z"/></g><g id="_Group_3" data-name="&lt;Group&gt;"><path class="cls-5" d="M78.33,51.19c0,2.39-2,4-4.53,4H49.39A5.19,5.19,0,0,1,48.07,55l.33-.65a52.64,52.64,0,0,1,3-5.09c.47-.71,1-1.41,1.46-2.1H73.8C76.3,47.19,78.33,48.8,78.33,51.19Z"/></g><g id="_Group_4" data-name="&lt;Group&gt;"><path class="cls-6" d="M72.1,105.19a3.79,3.79,0,0,1-3.95,4h-17c-.41-.61-.79-1.23-1.17-1.86a54.91,54.91,0,0,1-3.09-6,1.56,1.56,0,0,1-.08-.19h21.3A3.79,3.79,0,0,1,72.1,105.19Z"/></g><g id="_Group_6" data-name="&lt;Group&gt;"><path class="cls-7" d="M94.68,87.19c0,2.07-2.1,4-4.7,4H43.6c-.1-.45-.19-.9-.28-1.35a51.1,51.1,0,0,1-.8-5.7c0-.32,0-.63-.07-1H90C92.58,83.19,94.68,85.12,94.68,87.19Z"/></g><g id="_Group_7" data-name="&lt;Group&gt;"><path class="cls-8" d="M94.68,121.32c0,2.35-1.54,3.87-3.44,3.87H67.3a54.23,54.23,0,0,1-9.43-7.7c11.13,0,22.24,0,33.37,0C93.14,117.44,94.68,119,94.68,121.32Z"/></g><g id="_Group_8" data-name="&lt;Group&gt;"><path id="_Path_" data-name="&lt;Path&gt;" class="cls-9" d="M118.17,91.19H104.44c-2.6,0-4.7-1.73-4.7-4s2.1-4,4.7-4h13.74c2.6,0,4.7,1.73,4.7,4S120.77,91.19,118.17,91.19Z"/></g><g id="_Group_9" data-name="&lt;Group&gt;"><path id="_Path_2" data-name="&lt;Path&gt;" class="cls-10" d="M109.22,55.19H91.15c-2.6,0-4.7-1.85-4.7-4s2.1-4,4.7-4h18.07c2.6,0,4.7,1.85,4.7,4S111.81,55.19,109.22,55.19Z"/></g><g id="_Group_10" data-name="&lt;Group&gt;"><path class="cls-11" d="M104.19,36.32a4.16,4.16,0,0,1-4.29,4.12c-13.69,0-27.37-.08-41.05-.1a54.91,54.91,0,0,1,6.21-5.19,51.41,51.41,0,0,1,4.6-3H99.9A4.16,4.16,0,0,1,104.19,36.32Z"/></g><circle id="_Path_3" data-name="&lt;Path&gt;" class="cls-12" cx="193.32" cy="81.05" r="8.37"/><circle id="_Path_4" data-name="&lt;Path&gt;" class="cls-13" cx="79.16" cy="9.22" r="6.51"/><circle id="_Path_5" data-name="&lt;Path&gt;" class="cls-13" cx="27.47" cy="102.29" r="3.98"/><circle id="_Path_6" data-name="&lt;Path&gt;" class="cls-13" cx="29.28" cy="72.29" r="1.45"/><circle id="_Path_7" data-name="&lt;Path&gt;" class="cls-13" cx="38.72" cy="125.54" r="0.72"/><circle id="_Path_8" data-name="&lt;Path&gt;" class="cls-13" cx="4.7" cy="43.37" r="0.72"/><circle id="_Path_9" data-name="&lt;Path&gt;" class="cls-13" cx="154.7" cy="116.81" r="0.72"/><circle id="_Path_10" data-name="&lt;Path&gt;" class="cls-13" cx="110.97" cy="7.23" r="0.72"/><circle id="_Path_11" data-name="&lt;Path&gt;" class="cls-13" cx="146.96" cy="7.13" r="0.72"/><circle id="_Path_12" data-name="&lt;Path&gt;" class="cls-13" cx="166.15" cy="18.43" r="0.72"/><circle id="_Path_13" data-name="&lt;Path&gt;" class="cls-13" cx="11.93" cy="123.62" r="0.72"/><circle id="_Path_14" data-name="&lt;Path&gt;" class="cls-13" cx="55.3" cy="0.72" r="0.72"/><circle id="_Path_15" data-name="&lt;Path&gt;" class="cls-13" cx="57.47" cy="20.24" r="0.72"/><circle id="_Path_16" data-name="&lt;Path&gt;" class="cls-13" cx="35.78" cy="31.88" r="2.89"/><circle id="_Path_17" data-name="&lt;Path&gt;" class="cls-13" cx="157.32" cy="32.57" r="3.25"/><circle id="_Path_18" data-name="&lt;Path&gt;" class="cls-13" cx="4.7" cy="71.57" r="4.7"/><path id="_Path_19" data-name="&lt;Path&gt;" class="cls-13" d="M138.83,9.84l-2,1.9c-1.19,1.14-2.81,2.65-4.42,4.16L131.21,17c-.39.38-.78.74-1.17,1.09s-.77.67-1.14,1l-1,.85c-1.31,1-2.27,1.66-2.27,1.66l-.06-.05s.7-.85,1.87-2l1-.93c.34-.33.71-.67,1.1-1s.8-.69,1.22-1L132,15.5c1.7-1.43,3.39-2.87,4.67-3.93l2.14-1.77Z"/><path id="_Path_20" data-name="&lt;Path&gt;" class="cls-13" d="M21.93,89.54l-2.83,2.81c-1.69,1.69-4,3.91-6.27,6.14l-1.69,1.67c-.55.55-1.11,1.1-1.65,1.61s-1.09,1-1.61,1.44-1,.87-1.49,1.25c-1.86,1.54-3.21,2.46-3.21,2.46l-.08-.07s1-1.25,2.65-3c.41-.43.87-.89,1.35-1.38s1-1,1.55-1.49,1.14-1,1.74-1.53l1.8-1.57c2.41-2.11,4.8-4.24,6.62-5.81l3-2.62Z"/></g></g></g></svg>